<svg xmlns="http://www.w3.org/2000/svg" xmlns:xlink="http://www.w3.org/1999/xlink" width="256" height="256" viewBox="0 0 256 256" fill="none">
<path d="M65.7551 28L48 28L48 188C48 210.091 63.8984 228 83.5102 228L145.653 228L145.653 227.99L206.572 227.99C207.047 227.997 207.523 228 208 228L208 205.778C165.045 205.778 130.222 170.956 130.222 128C130.222 85.0446 165.045 50.2222 208 50.2222L208 28C152.772 28 108 72.7716 108 128C108 160.712 123.707 189.756 147.99 208L83.5102 208C73.7043 208 65.7551 199.046 65.7551 188L65.7551 28ZM162.286 76.5714C168 59.4286 185.143 53.7143 202.286 59.4286L202.286 116.571L162.286 76.5714ZM191.318 79.0985C191.321 79.0518 191.322 79.005 191.322 78.9582C191.322 78.9115 191.321 78.8648 191.318 78.8181C191.316 78.7713 191.313 78.7247 191.308 78.6782C191.303 78.6317 191.298 78.5853 191.291 78.539C191.284 78.4928 191.276 78.4468 191.267 78.4009C191.258 78.355 191.248 78.3094 191.237 78.2641C191.225 78.2186 191.212 78.1736 191.199 78.1288C191.185 78.0841 191.171 78.0397 191.155 77.9956C191.139 77.9517 191.122 77.9081 191.105 77.8648C191.087 77.8216 191.067 77.7788 191.047 77.7366C191.028 77.6944 191.007 77.6527 190.984 77.6113C190.962 77.5701 190.939 77.5294 190.915 77.4895C190.892 77.4493 190.866 77.4098 190.84 77.371C190.814 77.332 190.787 77.2938 190.76 77.2563C190.732 77.2187 190.703 77.1819 190.673 77.1457C190.644 77.1095 190.613 77.0742 190.582 77.0395C190.551 77.0048 190.518 76.9709 190.485 76.9378C190.452 76.9049 190.418 76.8727 190.383 76.8412C190.349 76.8098 190.314 76.7793 190.277 76.7497C190.241 76.7201 190.205 76.6912 190.167 76.6633C190.129 76.6355 190.091 76.6086 190.052 76.5826C190.013 76.5567 189.973 76.5316 189.934 76.5075C189.894 76.4835 189.852 76.4604 189.811 76.4384C189.77 76.4164 189.729 76.3954 189.686 76.3753C189.644 76.3553 189.602 76.3364 189.558 76.3185C189.515 76.3007 189.471 76.2839 189.427 76.2681C189.383 76.2524 189.339 76.2377 189.294 76.2242C189.25 76.2106 189.205 76.1981 189.159 76.1867C189.113 76.1754 189.067 76.1651 189.022 76.156C188.976 76.1469 188.93 76.1389 188.884 76.132C188.838 76.1252 188.791 76.1195 188.745 76.1148C188.698 76.1103 188.651 76.1068 188.605 76.1045C188.558 76.1022 188.511 76.1011 188.465 76.1011C188.418 76.1011 188.371 76.1022 188.325 76.1045C188.278 76.1068 188.231 76.1103 188.185 76.1148C188.138 76.1195 188.091 76.1252 188.046 76.132C187.999 76.1389 187.953 76.1469 187.907 76.156C187.862 76.1651 187.816 76.1754 187.77 76.1867C187.725 76.1981 187.68 76.2106 187.636 76.2242C187.591 76.2377 187.546 76.2524 187.502 76.2681C187.458 76.2839 187.414 76.3007 187.371 76.3185C187.328 76.3364 187.285 76.3553 187.243 76.3753C187.201 76.3954 187.159 76.4164 187.118 76.4384C187.077 76.4604 187.036 76.4835 186.995 76.5075C186.956 76.5316 186.917 76.5567 186.877 76.5826C186.839 76.6086 186.801 76.6355 186.763 76.6633C186.725 76.6912 186.688 76.7201 186.652 76.7497C186.616 76.7793 186.581 76.8098 186.546 76.8412C186.511 76.8727 186.478 76.9049 186.445 76.9378C186.412 76.9709 186.379 77.0049 186.348 77.0395C186.317 77.0742 186.285 77.1095 186.256 77.1457C186.226 77.1819 186.198 77.2187 186.17 77.2563C186.142 77.2938 186.115 77.332 186.089 77.371C186.063 77.4098 186.038 77.4493 186.014 77.4895C185.99 77.5294 185.967 77.5701 185.945 77.6113C185.923 77.6527 185.902 77.6944 185.882 77.7366C185.862 77.7788 185.843 77.8216 185.825 77.8648C185.807 77.9081 185.791 77.9517 185.775 77.9956C185.758 78.0397 185.744 78.0841 185.73 78.1288C185.717 78.1736 185.705 78.2186 185.694 78.2641C185.682 78.3094 185.672 78.355 185.662 78.4009C185.653 78.4468 185.645 78.4928 185.639 78.539C185.631 78.5853 185.626 78.6317 185.621 78.6782C185.617 78.7247 185.613 78.7713 185.611 78.8181C185.608 78.8648 185.608 78.9115 185.608 78.9582C185.608 79.005 185.608 79.0518 185.611 79.0985C185.613 79.1452 185.617 79.1917 185.621 79.2382C185.626 79.2848 185.631 79.3312 185.639 79.3773C185.645 79.4237 185.653 79.4698 185.662 79.5157C185.672 79.5616 185.682 79.6072 185.694 79.6524C185.705 79.6977 185.717 79.7428 185.73 79.7877C185.744 79.8323 185.758 79.8767 185.775 79.9208C185.791 79.9649 185.807 80.0084 185.825 80.0516C185.843 80.0948 185.862 80.1376 185.882 80.1799C185.902 80.2221 185.923 80.2639 185.945 80.3051C185.967 80.3464 185.99 80.387 186.014 80.4271C186.038 80.4672 186.063 80.5066 186.089 80.5456C186.115 80.5844 186.142 80.6227 186.17 80.6602C186.198 80.6979 186.226 80.7346 186.256 80.7708C186.285 80.807 186.317 80.8424 186.348 80.8769C186.379 80.9116 186.412 80.9455 186.445 80.9785C186.478 81.0116 186.511 81.0438 186.546 81.0752C186.581 81.1067 186.616 81.1373 186.652 81.1669C186.688 81.1965 186.725 81.2253 186.763 81.253C186.801 81.2809 186.839 81.3078 186.877 81.3338C186.917 81.3597 186.956 81.3847 186.995 81.4089C187.036 81.4329 187.077 81.456 187.118 81.4779C187.159 81.5 187.201 81.521 187.243 81.5411C187.285 81.5611 187.328 81.58 187.371 81.5979C187.414 81.6157 187.458 81.6326 187.502 81.6483C187.546 81.6641 187.591 81.6789 187.636 81.6924C187.68 81.706 187.725 81.7185 187.77 81.7297C187.816 81.7411 187.862 81.7513 187.907 81.7605C187.953 81.7695 187.999 81.7775 188.046 81.7844C188.091 81.7914 188.138 81.7971 188.185 81.8016C188.231 81.8062 188.278 81.8097 188.325 81.812C188.371 81.8143 188.418 81.8153 188.465 81.8153C188.511 81.8153 188.558 81.8143 188.605 81.812C188.651 81.8097 188.698 81.8062 188.745 81.8016C188.791 81.7971 188.838 81.7914 188.884 81.7844C188.93 81.7775 188.976 81.7695 189.022 81.7605C189.067 81.7513 189.113 81.7411 189.159 81.7297C189.205 81.7185 189.25 81.706 189.294 81.6924C189.339 81.6789 189.383 81.6641 189.427 81.6483C189.471 81.6326 189.515 81.6157 189.558 81.5979C189.602 81.58 189.644 81.5611 189.686 81.5411C189.729 81.521 189.77 81.5 189.811 81.4779C189.852 81.456 189.894 81.4329 189.934 81.4089C189.973 81.3848 190.013 81.3597 190.052 81.3338C190.091 81.3078 190.129 81.2809 190.167 81.253C190.205 81.2253 190.241 81.1965 190.277 81.1669C190.314 81.1373 190.349 81.1067 190.383 81.0752C190.418 81.0438 190.452 81.0116 190.485 80.9785C190.518 80.9455 190.55 80.9116 190.582 80.8769C190.613 80.8424 190.644 80.807 190.673 80.7708C190.703 80.7346 190.732 80.6979 190.76 80.6602C190.787 80.6227 190.814 80.5844 190.84 80.5456C190.866 80.5066 190.892 80.4672 190.915 80.4271C190.939 80.387 190.962 80.3464 190.984 80.3051C191.007 80.2639 191.028 80.2221 191.047 80.1799C191.067 80.1376 191.087 80.0948 191.105 80.0516C191.122 80.0084 191.139 79.9649 191.155 79.9208C191.171 79.8767 191.185 79.8323 191.199 79.7877C191.212 79.7428 191.225 79.6977 191.237 79.6524C191.248 79.6071 191.258 79.5615 191.267 79.5157C191.276 79.4698 191.284 79.4237 191.291 79.3773C191.298 79.3312 191.303 79.2848 191.308 79.2382C191.313 79.1917 191.316 79.1452 191.318 79.0985ZM156.572 82.2857L196.572 122.285L139.429 122.285C133.714 105.143 139.429 88 156.572 82.2857ZM157.033 96.2413C157.035 96.1946 157.037 96.1478 157.037 96.101C157.037 96.0543 157.035 96.0077 157.033 95.9609C157.03 95.9142 157.027 95.8675 157.023 95.8211C157.018 95.7745 157.012 95.7281 157.005 95.6818C156.998 95.6356 156.991 95.5896 156.982 95.5438C156.973 95.4978 156.962 95.4523 156.951 95.4069C156.94 95.3614 156.927 95.3164 156.913 95.2716C156.899 95.2269 156.885 95.1826 156.869 95.1385C156.854 95.0946 156.837 95.0509 156.819 95.0077C156.801 94.9645 156.782 94.9218 156.762 94.8796C156.742 94.8373 156.721 94.7955 156.699 94.7542C156.677 94.7129 156.654 94.6723 156.629 94.6323C156.606 94.5921 156.581 94.5526 156.554 94.5138C156.529 94.4748 156.502 94.4366 156.474 94.3991C156.446 94.3616 156.417 94.3247 156.388 94.2885C156.358 94.2523 156.328 94.217 156.296 94.1824C156.264 94.1477 156.232 94.1138 156.2 94.0806C156.167 94.0477 156.133 94.0155 156.098 93.984C156.063 93.9526 156.028 93.9222 155.992 93.8925C155.955 93.8629 155.919 93.8341 155.881 93.8062C155.844 93.7784 155.805 93.7515 155.767 93.7255C155.727 93.6995 155.688 93.6744 155.648 93.6504C155.608 93.6263 155.567 93.6033 155.526 93.5813C155.485 93.5593 155.443 93.5382 155.401 93.5182C155.359 93.4981 155.316 93.4792 155.273 93.4614C155.23 93.4435 155.186 93.4267 155.142 93.411C155.098 93.3952 155.053 93.3806 155.008 93.367C154.964 93.3534 154.919 93.341 154.873 93.3295C154.828 93.3182 154.782 93.3079 154.737 93.2988C154.691 93.2897 154.644 93.2817 154.599 93.2748C154.552 93.2681 154.506 93.2623 154.459 93.2576C154.413 93.2531 154.366 93.2497 154.319 93.2473C154.273 93.245 154.226 93.2439 154.18 93.2439C154.132 93.2439 154.085 93.245 154.039 93.2473C153.992 93.2497 153.945 93.2531 153.899 93.2576C153.853 93.2623 153.806 93.2681 153.76 93.2748C153.714 93.2817 153.667 93.2897 153.621 93.2988C153.576 93.3079 153.53 93.3182 153.485 93.3295C153.439 93.3409 153.394 93.3534 153.35 93.367C153.305 93.3806 153.261 93.3952 153.217 93.411C153.172 93.4267 153.129 93.4435 153.086 93.4614C153.042 93.4792 153 93.4981 152.957 93.5182C152.915 93.5382 152.873 93.5593 152.832 93.5813C152.791 93.6033 152.751 93.6263 152.71 93.6504C152.67 93.6744 152.631 93.6995 152.592 93.7255C152.553 93.7515 152.514 93.7784 152.477 93.8062C152.439 93.8341 152.403 93.8629 152.366 93.8925C152.331 93.9222 152.295 93.9526 152.26 93.984C152.225 94.0155 152.192 94.0477 152.159 94.0806C152.126 94.1138 152.094 94.1477 152.063 94.1824C152.031 94.217 152 94.2523 151.97 94.2885C151.941 94.3247 151.912 94.3616 151.884 94.3991C151.857 94.4366 151.829 94.4748 151.804 94.5138C151.777 94.5526 151.752 94.5921 151.729 94.6323C151.705 94.6723 151.681 94.7129 151.659 94.7542C151.637 94.7955 151.616 94.8372 151.596 94.8794C151.577 94.9217 151.558 94.9645 151.539 95.0077C151.522 95.0509 151.504 95.0946 151.489 95.1385C151.473 95.1826 151.459 95.2269 151.445 95.2716C151.431 95.3164 151.419 95.3614 151.408 95.4069C151.397 95.4523 151.386 95.4978 151.377 95.5438C151.368 95.5896 151.36 95.6356 151.353 95.6818C151.346 95.7281 151.341 95.7745 151.336 95.8211C151.332 95.8675 151.328 95.9142 151.325 95.9609C151.323 96.0077 151.322 96.0543 151.322 96.101C151.322 96.1478 151.323 96.1946 151.325 96.2413C151.328 96.288 151.331 96.3345 151.336 96.381C151.341 96.4276 151.346 96.474 151.353 96.5202C151.36 96.5666 151.368 96.6127 151.377 96.6585C151.386 96.7044 151.397 96.75 151.408 96.7952C151.419 96.8406 151.431 96.8857 151.445 96.9305C151.459 96.9751 151.473 97.0195 151.489 97.0636C151.504 97.1077 151.522 97.1513 151.539 97.1944C151.558 97.2376 151.577 97.2804 151.596 97.3227C151.616 97.365 151.637 97.4068 151.659 97.4479C151.681 97.4892 151.705 97.5298 151.729 97.57C151.752 97.6101 151.777 97.6495 151.804 97.6885C151.829 97.7272 151.857 97.7655 151.884 97.803C151.912 97.8406 151.941 97.8775 151.97 97.9136C152 97.9498 152.031 97.9852 152.063 98.0197C152.094 98.0544 152.126 98.0883 152.159 98.1214C152.192 98.1544 152.225 98.1866 152.26 98.2181C152.295 98.2495 152.331 98.2801 152.366 98.3097C152.403 98.3394 152.439 98.3681 152.477 98.3958C152.514 98.4237 152.553 98.4506 152.592 98.4766C152.631 98.5026 152.67 98.5276 152.71 98.5517C152.751 98.5758 152.791 98.5988 152.832 98.6208C152.873 98.6428 152.915 98.6639 152.957 98.6839C153 98.7039 153.042 98.7229 153.086 98.7407C153.129 98.7586 153.172 98.7754 153.217 98.7911C153.261 98.807 153.305 98.8217 153.35 98.8352C153.395 98.8489 153.439 98.8613 153.485 98.8726C153.53 98.8839 153.576 98.8941 153.621 98.9033C153.667 98.9125 153.714 98.9205 153.76 98.9273C153.806 98.9342 153.853 98.9399 153.899 98.9445C153.945 98.949 153.992 98.9525 154.039 98.9548C154.085 98.9571 154.132 98.9582 154.18 98.9582C154.226 98.9582 154.273 98.9571 154.319 98.9548C154.366 98.9525 154.413 98.949 154.459 98.9445C154.506 98.9399 154.552 98.9342 154.599 98.9273C154.644 98.9205 154.691 98.9125 154.737 98.9033C154.782 98.8941 154.828 98.8839 154.873 98.8726C154.919 98.8613 154.964 98.8489 155.008 98.8352C155.053 98.8217 155.098 98.807 155.142 98.7911C155.186 98.7754 155.23 98.7586 155.273 98.7407C155.316 98.7229 155.359 98.7039 155.401 98.6839C155.443 98.6639 155.485 98.6428 155.526 98.6208C155.567 98.5988 155.608 98.5758 155.648 98.5517C155.688 98.5276 155.727 98.5026 155.767 98.4766C155.805 98.4506 155.844 98.4237 155.881 98.3958C155.919 98.3681 155.955 98.3394 155.992 98.3097C156.028 98.2801 156.063 98.2495 156.098 98.2181C156.133 98.1866 156.167 98.1544 156.2 98.1214C156.232 98.0883 156.264 98.0544 156.296 98.0197C156.328 97.9852 156.358 97.9498 156.388 97.9136C156.417 97.8775 156.447 97.8406 156.474 97.803C156.502 97.7655 156.529 97.7272 156.554 97.6885C156.581 97.6495 156.606 97.6101 156.629 97.57C156.654 97.5298 156.677 97.4892 156.699 97.4479C156.721 97.4068 156.742 97.365 156.762 97.3227C156.782 97.2804 156.801 97.2376 156.819 97.1944C156.837 97.1513 156.853 97.1077 156.869 97.0636C156.885 97.0195 156.899 96.9751 156.913 96.9305C156.927 96.8857 156.94 96.8406 156.951 96.7952C156.962 96.75 156.973 96.7044 156.982 96.6585C156.991 96.6127 156.998 96.5666 157.005 96.5202C157.012 96.474 157.018 96.4276 157.023 96.381C157.027 96.3346 157.03 96.288 157.033 96.2413ZM179.89 113.384C179.892 113.337 179.893 113.291 179.893 113.244C179.893 113.197 179.892 113.15 179.89 113.104C179.888 113.057 179.884 113.01 179.88 112.964C179.875 112.917 179.87 112.871 179.862 112.825C179.856 112.779 179.848 112.732 179.838 112.687C179.829 112.641 179.819 112.595 179.807 112.55C179.796 112.504 179.784 112.459 179.77 112.415C179.757 112.37 179.742 112.325 179.726 112.281C179.71 112.237 179.694 112.194 179.676 112.15C179.658 112.107 179.639 112.065 179.619 112.022C179.599 111.98 179.578 111.938 179.556 111.897C179.534 111.856 179.511 111.815 179.487 111.775C179.462 111.735 179.438 111.695 179.412 111.657C179.386 111.618 179.359 111.579 179.331 111.542C179.303 111.504 179.274 111.468 179.245 111.431C179.215 111.395 179.184 111.36 179.153 111.325C179.122 111.29 179.089 111.257 179.056 111.224C179.023 111.191 178.989 111.158 178.955 111.127C178.92 111.095 178.885 111.065 178.849 111.035C178.813 111.006 178.775 110.977 178.738 110.949C178.7 110.921 178.662 110.894 178.624 110.868C178.584 110.842 178.545 110.817 178.505 110.793C178.465 110.769 178.424 110.746 178.383 110.724C178.342 110.702 178.3 110.681 178.258 110.661C178.216 110.641 178.173 110.622 178.13 110.604C178.087 110.586 178.043 110.57 177.999 110.554C177.955 110.538 177.91 110.523 177.865 110.51C177.821 110.496 177.775 110.484 177.731 110.472C177.685 110.461 177.639 110.451 177.593 110.442C177.548 110.433 177.502 110.424 177.455 110.418C177.41 110.411 177.363 110.405 177.316 110.4C177.27 110.396 177.223 110.393 177.176 110.39C177.13 110.388 177.083 110.387 177.036 110.387C176.99 110.387 176.943 110.388 176.896 110.39C176.85 110.393 176.803 110.396 176.756 110.4C176.71 110.405 176.663 110.411 176.617 110.418C176.571 110.424 176.525 110.433 176.479 110.442C176.432 110.451 176.388 110.461 176.342 110.472C176.296 110.484 176.251 110.496 176.206 110.51C176.162 110.523 176.118 110.538 176.074 110.554C176.03 110.57 175.986 110.586 175.943 110.604C175.9 110.622 175.857 110.641 175.815 110.661C175.772 110.681 175.731 110.702 175.69 110.724C175.648 110.746 175.607 110.769 175.567 110.793C175.528 110.817 175.487 110.842 175.449 110.868C175.41 110.894 175.372 110.921 175.335 110.949C175.296 110.977 175.26 111.006 175.224 111.035C175.187 111.065 175.152 111.095 175.117 111.127C175.083 111.158 175.049 111.19 175.016 111.224C174.983 111.257 174.95 111.29 174.919 111.325C174.888 111.36 174.857 111.395 174.828 111.431C174.798 111.468 174.769 111.504 174.741 111.542C174.713 111.579 174.687 111.618 174.66 111.657C174.635 111.695 174.61 111.735 174.585 111.775C174.562 111.815 174.539 111.856 174.517 111.897C174.495 111.938 174.474 111.98 174.454 112.022C174.433 112.065 174.414 112.107 174.397 112.15C174.379 112.194 174.362 112.237 174.347 112.281C174.33 112.325 174.315 112.37 174.302 112.415C174.288 112.459 174.276 112.504 174.264 112.55C174.253 112.595 174.243 112.641 174.234 112.687C174.225 112.732 174.217 112.779 174.21 112.825C174.203 112.871 174.197 112.917 174.193 112.964C174.188 113.01 174.185 113.057 174.183 113.104C174.18 113.15 174.179 113.197 174.179 113.244C174.179 113.291 174.18 113.337 174.183 113.384C174.185 113.431 174.188 113.478 174.193 113.524C174.197 113.571 174.203 113.617 174.21 113.663C174.217 113.709 174.225 113.756 174.234 113.801C174.243 113.847 174.253 113.893 174.264 113.938C174.276 113.983 174.288 114.029 174.302 114.073C174.315 114.118 174.33 114.162 174.346 114.206C174.362 114.251 174.379 114.294 174.397 114.337C174.414 114.381 174.433 114.423 174.454 114.465C174.474 114.508 174.495 114.55 174.517 114.591C174.539 114.632 174.562 114.673 174.585 114.713C174.61 114.753 174.635 114.792 174.66 114.831C174.687 114.87 174.713 114.908 174.741 114.946C174.769 114.983 174.798 115.02 174.828 115.056C174.857 115.093 174.888 115.128 174.919 115.163C174.95 115.197 174.983 115.231 175.016 115.264C175.049 115.297 175.083 115.329 175.117 115.361C175.152 115.392 175.187 115.423 175.224 115.453C175.26 115.482 175.296 115.511 175.335 115.539C175.372 115.567 175.41 115.593 175.449 115.619C175.487 115.645 175.528 115.671 175.567 115.695C175.607 115.719 175.648 115.742 175.69 115.764C175.731 115.786 175.772 115.807 175.815 115.827C175.857 115.847 175.9 115.866 175.943 115.884C175.986 115.901 176.03 115.918 176.074 115.934C176.118 115.95 176.162 115.965 176.206 115.978C176.251 115.992 176.297 116.004 176.342 116.015C176.388 116.027 176.432 116.037 176.479 116.046C176.525 116.055 176.571 116.063 176.617 116.07C176.663 116.077 176.71 116.083 176.756 116.087C176.803 116.092 176.85 116.095 176.896 116.098C176.943 116.1 176.99 116.101 177.036 116.101C177.083 116.101 177.13 116.1 177.176 116.098C177.223 116.095 177.27 116.092 177.316 116.087C177.363 116.083 177.41 116.077 177.455 116.07C177.502 116.063 177.548 116.055 177.593 116.046C177.639 116.037 177.685 116.027 177.731 116.015C177.775 116.004 177.821 115.992 177.865 115.978C177.91 115.965 177.955 115.95 177.999 115.934C178.043 115.918 178.087 115.901 178.13 115.884C178.173 115.866 178.216 115.847 178.258 115.827C178.3 115.807 178.342 115.786 178.383 115.764C178.424 115.742 178.465 115.719 178.505 115.695C178.545 115.671 178.584 115.645 178.624 115.619C178.662 115.593 178.7 115.567 178.738 115.539C178.775 115.511 178.813 115.482 178.849 115.453C178.885 115.423 178.92 115.392 178.955 115.361C178.989 115.329 179.023 115.297 179.056 115.264C179.089 115.231 179.122 115.197 179.153 115.163C179.184 115.128 179.215 115.093 179.245 115.056C179.274 115.02 179.303 114.983 179.331 114.946C179.359 114.908 179.386 114.87 179.412 114.831C179.438 114.792 179.462 114.753 179.487 114.713C179.511 114.673 179.534 114.632 179.556 114.591C179.578 114.55 179.599 114.508 179.619 114.465C179.639 114.423 179.658 114.381 179.676 114.337C179.694 114.294 179.71 114.251 179.726 114.206C179.742 114.162 179.757 114.118 179.77 114.073C179.784 114.029 179.796 113.983 179.807 113.938C179.819 113.893 179.829 113.847 179.838 113.801C179.848 113.756 179.856 113.709 179.862 113.663C179.87 113.617 179.875 113.571 179.88 113.524C179.884 113.478 179.888 113.431 179.89 113.384ZM139.429 133.714L196.572 133.714L156.572 173.714C139.429 168 133.714 150.857 139.429 133.714ZM174.176 141.956C174.178 141.909 174.179 141.862 174.179 141.816C174.179 141.769 174.178 141.721 174.176 141.675C174.174 141.628 174.17 141.581 174.165 141.535C174.161 141.489 174.155 141.442 174.148 141.396C174.142 141.35 174.133 141.304 174.124 141.258C174.115 141.212 174.105 141.166 174.093 141.121C174.082 141.076 174.069 141.031 174.056 140.986C174.042 140.941 174.027 140.897 174.012 140.852C173.996 140.808 173.98 140.765 173.961 140.721C173.944 140.678 173.925 140.635 173.905 140.593C173.885 140.551 173.864 140.51 173.842 140.468C173.82 140.427 173.797 140.387 173.773 140.346C173.748 140.306 173.724 140.267 173.698 140.228C173.671 140.189 173.645 140.151 173.617 140.113C173.589 140.076 173.56 140.039 173.531 140.002C173.5 139.967 173.47 139.931 173.439 139.896C173.408 139.862 173.375 139.828 173.342 139.795C173.309 139.762 173.275 139.73 173.241 139.698C173.206 139.667 173.171 139.636 173.134 139.606C173.099 139.577 173.061 139.549 173.024 139.52C172.986 139.493 172.948 139.466 172.909 139.44C172.87 139.414 172.831 139.389 172.79 139.365C172.75 139.34 172.71 139.317 172.669 139.296C172.628 139.273 172.585 139.252 172.543 139.232C172.501 139.213 172.458 139.194 172.415 139.176C172.372 139.158 172.328 139.141 172.285 139.125C172.241 139.109 172.196 139.095 172.151 139.081C172.106 139.068 172.061 139.055 172.016 139.044C171.971 139.033 171.925 139.022 171.879 139.013C171.833 139.004 171.788 138.996 171.741 138.989C171.695 138.982 171.649 138.977 171.602 138.972C171.555 138.967 171.509 138.964 171.462 138.962C171.415 138.959 171.369 138.958 171.322 138.958C171.275 138.958 171.229 138.959 171.182 138.962C171.135 138.964 171.089 138.967 171.042 138.972C170.995 138.977 170.949 138.982 170.902 138.989C170.856 138.996 170.811 139.004 170.764 139.013C170.718 139.022 170.673 139.033 170.628 139.044C170.582 139.055 170.537 139.068 170.492 139.081C170.447 139.095 170.404 139.109 170.36 139.125C170.316 139.141 170.272 139.158 170.229 139.176C170.185 139.194 170.143 139.213 170.101 139.232C170.058 139.252 170.017 139.273 169.975 139.296C169.934 139.317 169.893 139.34 169.853 139.365C169.813 139.389 169.773 139.414 169.735 139.44C169.695 139.466 169.657 139.493 169.62 139.52C169.582 139.549 169.545 139.577 169.51 139.606C169.473 139.636 169.437 139.667 169.403 139.698C169.369 139.73 169.335 139.762 169.301 139.795C169.268 139.828 169.236 139.862 169.205 139.896C169.173 139.931 169.143 139.967 169.114 140.002C169.083 140.039 169.055 140.076 169.027 140.113C168.999 140.151 168.973 140.189 168.946 140.228C168.921 140.267 168.895 140.306 168.871 140.346C168.847 140.387 168.825 140.427 168.803 140.468C168.78 140.51 168.759 140.551 168.739 140.593C168.719 140.635 168.7 140.678 168.682 140.721C168.664 140.765 168.648 140.808 168.631 140.852C168.616 140.897 168.601 140.941 168.588 140.986C168.574 141.031 168.562 141.076 168.55 141.121C168.539 141.166 168.529 141.212 168.52 141.258C168.511 141.304 168.502 141.35 168.496 141.396C168.489 141.442 168.483 141.489 168.479 141.535C168.474 141.581 168.47 141.628 168.469 141.675C168.466 141.721 168.465 141.769 168.465 141.816C168.465 141.862 168.466 141.909 168.469 141.956C168.47 142.002 168.474 142.049 168.479 142.096C168.483 142.142 168.489 142.188 168.496 142.235C168.502 142.28 168.511 142.327 168.52 142.373C168.529 142.419 168.539 142.464 168.55 142.51C168.562 142.555 168.574 142.6 168.588 142.645C168.601 142.689 168.616 142.734 168.631 142.778C168.648 142.822 168.664 142.866 168.682 142.909C168.7 142.952 168.719 142.995 168.739 143.037C168.759 143.079 168.78 143.121 168.803 143.162C168.825 143.203 168.847 143.244 168.871 143.284C168.895 143.324 168.921 143.364 168.946 143.403C168.973 143.441 168.999 143.48 169.027 143.517C169.055 143.555 169.083 143.591 169.114 143.628C169.143 143.664 169.173 143.699 169.205 143.734C169.236 143.769 169.268 143.803 169.301 143.836C169.335 143.869 169.369 143.901 169.403 143.933C169.437 143.964 169.473 143.994 169.51 144.024C169.545 144.053 169.582 144.083 169.62 144.11C169.657 144.138 169.695 144.165 169.735 144.191C169.774 144.217 169.813 144.242 169.853 144.266C169.893 144.29 169.934 144.313 169.975 144.335C170.017 144.357 170.058 144.378 170.101 144.398C170.143 144.419 170.185 144.437 170.229 144.455C170.272 144.472 170.316 144.49 170.36 144.505C170.404 144.521 170.447 144.536 170.492 144.549C170.537 144.563 170.582 144.576 170.628 144.587C170.673 144.598 170.718 144.609 170.764 144.618C170.811 144.627 170.856 144.634 170.902 144.642C170.949 144.648 170.995 144.655 171.042 144.659C171.089 144.664 171.135 144.666 171.182 144.669C171.229 144.671 171.275 144.673 171.322 144.673C171.369 144.673 171.415 144.671 171.462 144.669C171.509 144.666 171.555 144.664 171.602 144.659C171.649 144.655 171.695 144.648 171.741 144.642C171.788 144.634 171.833 144.627 171.879 144.618C171.925 144.609 171.971 144.598 172.016 144.587C172.061 144.576 172.106 144.563 172.151 144.549C172.196 144.536 172.241 144.521 172.285 144.505C172.328 144.49 172.372 144.472 172.415 144.455C172.458 144.437 172.501 144.419 172.543 144.398C172.585 144.378 172.628 144.357 172.669 144.335C172.71 144.313 172.75 144.29 172.79 144.266C172.831 144.242 172.87 144.217 172.909 144.191C172.948 144.165 172.986 144.138 173.024 144.11C173.061 144.083 173.099 144.053 173.134 144.024C173.171 143.994 173.206 143.964 173.241 143.933C173.275 143.901 173.309 143.869 173.342 143.836C173.375 143.803 173.408 143.769 173.439 143.734C173.47 143.699 173.5 143.664 173.531 143.628C173.56 143.591 173.589 143.555 173.617 143.517C173.645 143.48 173.671 143.441 173.698 143.403C173.724 143.364 173.748 143.324 173.773 143.284C173.797 143.244 173.82 143.203 173.842 143.162C173.864 143.121 173.885 143.079 173.905 143.037C173.925 142.995 173.944 142.952 173.961 142.909C173.98 142.866 173.996 142.822 174.012 142.778C174.027 142.734 174.042 142.689 174.056 142.645C174.069 142.6 174.082 142.555 174.093 142.51C174.105 142.464 174.115 142.419 174.124 142.373C174.133 142.327 174.142 142.28 174.148 142.235C174.155 142.188 174.161 142.142 174.165 142.096C174.17 142.049 174.174 142.002 174.176 141.956ZM162.286 179.428L202.286 139.428L202.286 196.571C185.143 202.286 168 196.571 162.286 179.428ZM157.033 147.67C157.035 147.623 157.037 147.576 157.037 147.53C157.037 147.483 157.035 147.437 157.033 147.39C157.03 147.342 157.027 147.297 157.023 147.25C157.018 147.203 157.012 147.157 157.005 147.11C156.998 147.064 156.991 147.019 156.982 146.972C156.973 146.926 156.962 146.88 156.951 146.836C156.94 146.79 156.927 146.745 156.913 146.7C156.899 146.655 156.885 146.611 156.869 146.567C156.854 146.523 156.837 146.48 156.819 146.437C156.801 146.393 156.782 146.351 156.762 146.308C156.742 146.266 156.721 146.224 156.699 146.183C156.677 146.141 156.654 146.101 156.629 146.061C156.606 146.02 156.581 145.981 156.554 145.943C156.529 145.903 156.502 145.865 156.474 145.827C156.447 145.79 156.417 145.753 156.388 145.717C156.358 145.681 156.328 145.645 156.296 145.61C156.264 145.576 156.232 145.543 156.2 145.509C156.167 145.476 156.133 145.444 156.098 145.413C156.063 145.381 156.028 145.351 155.992 145.321C155.956 145.291 155.919 145.263 155.881 145.234C155.844 145.207 155.805 145.18 155.767 145.154C155.727 145.128 155.688 145.103 155.648 145.079C155.608 145.055 155.567 145.031 155.526 145.009C155.485 144.988 155.443 144.966 155.401 144.946C155.359 144.927 155.316 144.908 155.273 144.89C155.23 144.872 155.186 144.855 155.142 144.839C155.098 144.824 155.053 144.809 155.008 144.795C154.964 144.782 154.919 144.77 154.873 144.758C154.828 144.747 154.782 144.737 154.737 144.728C154.691 144.718 154.644 144.71 154.599 144.703C154.552 144.697 154.506 144.691 154.459 144.687C154.413 144.682 154.366 144.678 154.319 144.676C154.273 144.674 154.226 144.673 154.18 144.673C154.132 144.673 154.085 144.674 154.039 144.676C153.992 144.678 153.945 144.682 153.899 144.687C153.853 144.691 153.806 144.697 153.76 144.703C153.714 144.71 153.667 144.718 153.621 144.728C153.576 144.737 153.53 144.747 153.485 144.758C153.439 144.77 153.395 144.782 153.35 144.795C153.305 144.809 153.261 144.824 153.217 144.839C153.172 144.855 153.129 144.872 153.086 144.89C153.042 144.908 153 144.927 152.957 144.946C152.915 144.966 152.873 144.988 152.832 145.009C152.791 145.031 152.751 145.055 152.71 145.079C152.67 145.103 152.631 145.128 152.592 145.154C152.553 145.18 152.514 145.207 152.477 145.234C152.439 145.263 152.403 145.291 152.366 145.321C152.331 145.351 152.295 145.381 152.26 145.413C152.225 145.444 152.192 145.476 152.159 145.509C152.126 145.543 152.094 145.576 152.063 145.61C152.031 145.645 152 145.681 151.97 145.717C151.941 145.753 151.912 145.79 151.884 145.827C151.857 145.865 151.829 145.903 151.804 145.943C151.777 145.981 151.752 146.02 151.729 146.061C151.705 146.101 151.681 146.141 151.659 146.183C151.637 146.224 151.616 146.266 151.596 146.308C151.577 146.351 151.558 146.393 151.539 146.437C151.522 146.48 151.504 146.523 151.489 146.567C151.473 146.611 151.459 146.655 151.445 146.7C151.431 146.745 151.419 146.79 151.408 146.836C151.397 146.88 151.386 146.926 151.377 146.972C151.368 147.019 151.36 147.064 151.353 147.11C151.346 147.157 151.341 147.203 151.336 147.25C151.332 147.297 151.328 147.342 151.325 147.39C151.323 147.437 151.322 147.483 151.322 147.53C151.322 147.576 151.323 147.623 151.325 147.67C151.328 147.716 151.332 147.763 151.336 147.81C151.341 147.856 151.346 147.902 151.353 147.949C151.36 147.995 151.368 148.041 151.377 148.087C151.386 148.133 151.397 148.179 151.408 148.224C151.419 148.269 151.431 148.314 151.445 148.359C151.459 148.404 151.473 148.448 151.489 148.492C151.504 148.536 151.522 148.58 151.539 148.623C151.558 148.666 151.577 148.709 151.596 148.751C151.616 148.793 151.637 148.835 151.659 148.877C151.681 148.918 151.705 148.958 151.729 148.998C151.752 149.038 151.777 149.078 151.804 149.117C151.829 149.156 151.857 149.194 151.884 149.232C151.912 149.269 151.941 149.306 151.97 149.342C152 149.378 152.031 149.414 152.063 149.448C152.094 149.483 152.126 149.517 152.159 149.55C152.192 149.583 152.225 149.615 152.26 149.647C152.295 149.678 152.331 149.708 152.366 149.738C152.403 149.768 152.439 149.797 152.477 149.824C152.514 149.853 152.553 149.879 152.592 149.905C152.631 149.931 152.67 149.956 152.71 149.98C152.751 150.005 152.791 150.027 152.832 150.049C152.873 150.071 152.915 150.092 152.957 150.113C153 150.133 153.042 150.151 153.086 150.169C153.129 150.188 153.172 150.204 153.217 150.22C153.261 150.235 153.305 150.25 153.35 150.263C153.395 150.277 153.439 150.29 153.485 150.301C153.53 150.313 153.576 150.323 153.621 150.332C153.667 150.341 153.714 150.349 153.76 150.356C153.806 150.362 153.853 150.369 153.899 150.373C153.945 150.378 153.992 150.381 154.039 150.383C154.085 150.385 154.132 150.387 154.18 150.387C154.226 150.387 154.273 150.385 154.319 150.383C154.366 150.381 154.413 150.378 154.459 150.373C154.506 150.369 154.552 150.362 154.599 150.356C154.644 150.349 154.691 150.341 154.737 150.332C154.782 150.323 154.828 150.313 154.873 150.301C154.919 150.29 154.964 150.277 155.008 150.263C155.053 150.25 155.098 150.235 155.142 150.22C155.186 150.204 155.23 150.188 155.273 150.169C155.316 150.151 155.359 150.133 155.401 150.113C155.443 150.092 155.485 150.071 155.526 150.049C155.567 150.027 155.608 150.005 155.648 149.98C155.688 149.956 155.727 149.931 155.767 149.905C155.805 149.879 155.844 149.853 155.881 149.824C155.919 149.797 155.955 149.768 155.992 149.738C156.028 149.708 156.063 149.678 156.098 149.647C156.133 149.615 156.167 149.583 156.2 149.55C156.232 149.517 156.264 149.483 156.296 149.448C156.328 149.414 156.358 149.378 156.388 149.342C156.417 149.306 156.447 149.269 156.474 149.232C156.502 149.194 156.529 149.156 156.554 149.117C156.581 149.078 156.606 149.038 156.629 148.998C156.654 148.958 156.677 148.918 156.699 148.877C156.721 148.835 156.742 148.793 156.762 148.751C156.782 148.709 156.801 148.666 156.819 148.623C156.837 148.58 156.854 148.536 156.869 148.492C156.885 148.448 156.899 148.404 156.913 148.359C156.927 148.314 156.94 148.269 156.951 148.224C156.962 148.179 156.973 148.133 156.982 148.087C156.991 148.041 156.998 147.995 157.005 147.949C157.012 147.902 157.018 147.856 157.023 147.81C157.027 147.763 157.03 147.716 157.033 147.67ZM185.604 176.241C185.607 176.194 185.608 176.147 185.608 176.101C185.608 176.054 185.607 176.008 185.604 175.961C185.602 175.914 185.598 175.868 185.594 175.821C185.589 175.774 185.584 175.728 185.576 175.682C185.57 175.635 185.562 175.589 185.553 175.544C185.543 175.498 185.533 175.452 185.522 175.406C185.511 175.362 185.498 175.317 185.485 175.272C185.471 175.227 185.457 175.182 185.44 175.138C185.425 175.094 185.408 175.051 185.39 175.008C185.372 174.965 185.353 174.922 185.333 174.879C185.313 174.837 185.292 174.795 185.27 174.754C185.248 174.713 185.225 174.672 185.201 174.632C185.177 174.592 185.152 174.553 185.126 174.514C185.1 174.475 185.073 174.437 185.045 174.399C185.017 174.362 184.989 174.324 184.959 174.288C184.93 174.252 184.899 174.217 184.867 174.182C184.836 174.148 184.803 174.114 184.77 174.081C184.738 174.048 184.704 174.015 184.669 173.984C184.634 173.953 184.599 173.923 184.563 173.892C184.527 173.863 184.49 173.834 184.452 173.806C184.415 173.778 184.377 173.751 184.338 173.725C184.299 173.699 184.259 173.674 184.22 173.65C184.179 173.626 184.138 173.603 184.097 173.581C184.056 173.559 184.014 173.538 183.972 173.518C183.93 173.498 183.887 173.479 183.844 173.461C183.801 173.443 183.757 173.427 183.713 173.411C183.669 173.396 183.624 173.381 183.58 173.367C183.535 173.354 183.49 173.341 183.445 173.33C183.399 173.318 183.353 173.308 183.308 173.299C183.262 173.289 183.216 173.281 183.169 173.275C183.124 173.268 183.077 173.262 183.03 173.257C182.984 173.253 182.937 173.249 182.89 173.247C182.844 173.245 182.797 173.244 182.75 173.244C182.704 173.244 182.657 173.245 182.61 173.247C182.564 173.249 182.517 173.253 182.47 173.257C182.424 173.262 182.377 173.268 182.331 173.275C182.285 173.281 182.239 173.289 182.193 173.299C182.148 173.308 182.102 173.318 182.056 173.33C182.011 173.341 181.965 173.354 181.921 173.367C181.876 173.381 181.832 173.396 181.788 173.411C181.744 173.427 181.7 173.443 181.657 173.461C181.614 173.479 181.571 173.498 181.529 173.518C181.486 173.538 181.445 173.559 181.404 173.581C181.363 173.603 181.321 173.626 181.281 173.65C181.242 173.675 181.202 173.699 181.163 173.725C181.124 173.751 181.086 173.778 181.049 173.806C181.011 173.834 180.974 173.863 180.938 173.892C180.902 173.923 180.867 173.953 180.832 173.984C180.797 174.015 180.763 174.048 180.73 174.081C180.698 174.114 180.665 174.148 180.633 174.182C180.602 174.217 180.571 174.252 180.542 174.288C180.512 174.324 180.483 174.362 180.455 174.399C180.428 174.437 180.401 174.475 180.375 174.514C180.349 174.553 180.324 174.592 180.3 174.632C180.276 174.672 180.253 174.713 180.231 174.754C180.209 174.795 180.188 174.837 180.168 174.879C180.148 174.922 180.128 174.965 180.111 175.008C180.093 175.051 180.076 175.094 180.06 175.138C180.044 175.182 180.03 175.227 180.016 175.272C180.003 175.317 179.99 175.362 179.979 175.406C179.967 175.452 179.957 175.498 179.948 175.544C179.939 175.589 179.931 175.635 179.924 175.682C179.917 175.728 179.912 175.774 179.907 175.821C179.902 175.868 179.899 175.914 179.897 175.961C179.894 176.008 179.893 176.054 179.893 176.101C179.893 176.147 179.894 176.194 179.897 176.241C179.899 176.288 179.902 176.335 179.907 176.381C179.912 176.427 179.917 176.474 179.924 176.521C179.931 176.566 179.939 176.612 179.948 176.659C179.957 176.705 179.967 176.75 179.979 176.795C179.99 176.841 180.003 176.886 180.016 176.931C180.03 176.975 180.044 177.019 180.06 177.063C180.076 177.107 180.093 177.151 180.111 177.194C180.128 177.238 180.148 177.28 180.168 177.323C180.188 177.365 180.209 177.406 180.231 177.447C180.253 177.489 180.276 177.53 180.3 177.57C180.324 177.61 180.349 177.65 180.375 177.688C180.401 177.727 180.428 177.766 180.455 177.803C180.483 177.841 180.512 177.877 180.542 177.913C180.571 177.95 180.602 177.985 180.633 178.02C180.665 178.054 180.698 178.088 180.73 178.122C180.763 178.155 180.797 178.187 180.832 178.218C180.866 178.25 180.902 178.28 180.938 178.309C180.974 178.339 181.011 178.368 181.049 178.396C181.086 178.424 181.124 178.45 181.163 178.477C181.202 178.502 181.242 178.528 181.281 178.552C181.321 178.576 181.363 178.598 181.404 178.62C181.445 178.643 181.486 178.664 181.529 178.683C181.571 178.704 181.614 178.723 181.657 178.74C181.7 178.758 181.744 178.775 181.788 178.791C181.832 178.807 181.876 178.822 181.921 178.835C181.965 178.849 182.011 178.861 182.056 178.873C182.102 178.884 182.148 178.894 182.193 178.903C182.239 178.912 182.285 178.92 182.331 178.927C182.377 178.934 182.424 178.94 182.47 178.944C182.517 178.949 182.564 178.952 182.61 178.954C182.657 178.957 182.704 178.958 182.75 178.958C182.797 178.958 182.844 178.957 182.89 178.954C182.937 178.952 182.984 178.949 183.03 178.944C183.077 178.94 183.124 178.934 183.169 178.927C183.216 178.92 183.262 178.912 183.308 178.903C183.353 178.894 183.399 178.884 183.445 178.873C183.49 178.861 183.535 178.849 183.58 178.835C183.624 178.822 183.669 178.807 183.713 178.791C183.757 178.775 183.801 178.758 183.844 178.74C183.887 178.723 183.93 178.704 183.972 178.683C184.014 178.664 184.056 178.643 184.097 178.62C184.138 178.598 184.179 178.576 184.22 178.552C184.259 178.528 184.299 178.503 184.338 178.477C184.377 178.45 184.415 178.424 184.452 178.396C184.49 178.368 184.527 178.339 184.563 178.309C184.599 178.28 184.634 178.25 184.669 178.218C184.704 178.187 184.738 178.155 184.77 178.122C184.804 178.088 184.836 178.054 184.867 178.019C184.899 177.985 184.93 177.95 184.959 177.913C184.989 177.877 185.017 177.841 185.045 177.803C185.073 177.766 185.1 177.727 185.126 177.688C185.152 177.65 185.177 177.61 185.201 177.57C185.225 177.53 185.248 177.489 185.27 177.447C185.292 177.406 185.313 177.365 185.333 177.323C185.353 177.28 185.372 177.238 185.39 177.194C185.408 177.151 185.425 177.107 185.44 177.063C185.457 177.019 185.471 176.975 185.485 176.931C185.498 176.886 185.511 176.841 185.522 176.795C185.533 176.75 185.543 176.705 185.553 176.659C185.562 176.612 185.57 176.566 185.576 176.521C185.584 176.474 185.589 176.427 185.594 176.381C185.598 176.335 185.602 176.288 185.604 176.241Z" fill-rule="evenodd"  fill="#EACA44" >
</path>
</svg>
